<svg width="64" height="64" viewBox="0 0 64 64" fill="none" xmlns="http://www.w3.org/2000/svg">
  <rect width="64" height="64" rx="18" fill="#DCE9DF"/>
  <path d="M45.2 21.9C41.8 17.7 36.8 15.2 31.7 15.2C21.9 15.2 14 23.1 14 32.9C14 42.7 21.9 50.6 31.7 50.6C37.5 50.6 42.8 47.8 46.1 43.2L39.6 38.6C37.8 41.1 34.9 42.6 31.7 42.6C26.3 42.6 22 38.3 22 32.9C22 27.5 26.3 23.2 31.7 23.2C34.5 23.2 37.1 24.4 39 26.6L45.2 21.9Z" fill="#15211B"/>
  <path d="M34.5 28.5H51V36.2H34.5C32.4 36.2 30.7 34.5 30.7 32.4C30.7 30.2 32.4 28.5 34.5 28.5Z" fill="#F07C52"/>
</svg>
